SplineFontDB: 3.0
FontName: pNeuBau
FullName: pNeuBau
FamilyName: pNeuBau
Weight: Regular
Copyright: tam kien duong\nCC-BY-SA-NC
UComments: "2014-7-27: Created with FontForge (http://fontforge.org)" 
Version: 001.000
ItalicAngle: 0
UnderlinePosition: -100
UnderlineWidth: 50
Ascent: 800
Descent: 200
LayerCount: 2
Layer: 0 0 "Back"  1
Layer: 1 0 "Fore"  0
XUID: [1021 169 -367430369 11711174]
FSType: 0
OS2Version: 0
OS2_WeightWidthSlopeOnly: 0
OS2_UseTypoMetrics: 1
CreationTime: 1406452203
ModificationTime: 1406479369
OS2TypoAscent: 0
OS2TypoAOffset: 1
OS2TypoDescent: 0
OS2TypoDOffset: 1
OS2TypoLinegap: 90
OS2WinAscent: 0
OS2WinAOffset: 1
OS2WinDescent: 0
OS2WinDOffset: 1
HheadAscent: 0
HheadAOffset: 1
HheadDescent: 0
HheadDOffset: 1
OS2Vendor: 'PfEd'
Lookup: 258 0 0 "pairs"  {} []
MarkAttachClasses: 1
DEI: 91125
Encoding: ISO8859-1
UnicodeInterp: none
NameList: AGL For New Fonts
DisplaySize: -72
AntiAlias: 1
FitToEm: 1
WinInfo: 40 8 8
BeginPrivate: 0
EndPrivate
BeginChars: 256 28

StartChar: A
Encoding: 65 65 0
Width: 774
VWidth: 0
Flags: W
HStem: 273.512 47.79<700.777 775.634>
VStem: 172.496 47.4609<-0.109091 15.9512> 711.363 47.6748<-0.783312 15.9512>
LayerCount: 2
Fore
SplineSet
466.306640625 797.3828125 m 0
 475.537109375 797.139648438 485.557617188 789.888671875 488.671875 781.1953125 c 2
 635.248046875 372.715820312 l 1
 672.61328125 353.748046875 713.271484375 336.670898438 758.53515625 321.301757812 c 0
 768.05078125 318.368164062 775.772460938 307.905273438 775.772460938 297.94921875 c 0
 775.772460938 284.458984375 764.825195312 273.51171875 751.334960938 273.51171875 c 0
 748.911132812 273.51171875 745.098632812 274.1953125 742.827148438 275.0390625 c 0
 713.051757812 285.149414062 685.052734375 296.067382812 658.54296875 307.797851562 c 1
 757.337890625 32.4736328125 l 2
 758.276367188 30.0908203125 759.038085938 26.080078125 759.038085938 23.51953125 c 0
 759.038085938 10.029296875 748.088867188 -0.9189453125 734.598632812 -0.9189453125 c 0
 724.805664062 -0.9189453125 714.395507812 6.6396484375 711.36328125 15.951171875 c 2
 595.541015625 338.633789062 l 1
 517.34765625 380.8203125 452.170898438 431.486328125 390.350585938 490.760742188 c 1
 219.95703125 15.951171875 l 2
 216.75 7.0146484375 206.440429688 -0.2392578125 196.944335938 -0.2392578125 c 0
 183.448242188 -0.2392578125 172.49609375 10.71484375 172.49609375 24.2109375 c 0
 172.49609375 26.560546875 173.139648438 30.2626953125 173.934570312 32.4736328125 c 2
 339.693359375 494.328125 l 1
 205.782226562 442.35546875 114.5234375 373.182617188 23.7490234375 280.977539062 c 0
 19.7578125 276.766601562 11.8115234375 273.348632812 6.0087890625 273.348632812 c 0
 -7.4814453125 273.348632812 -18.4287109375 284.295898438 -18.4287109375 297.786132812 c 0
 -18.4287109375 303.466796875 -15.1298828125 311.298828125 -11.0673828125 315.267578125 c 0
 91.21484375 419.16015625 199.275390625 498.53515625 361.237304688 554.357421875 c 1
 442.6484375 781.1953125 l 2
 445.8515625 790.135742188 456.139648438 797.3828125 465.635742188 797.3828125 c 0
 465.815429688 797.3828125 466.126953125 797.3828125 466.306640625 797.3828125 c 0
570.025390625 409.719726562 m 1
 465.635742188 700.547851562 l 1
 408.409179688 541.08203125 l 1
 459.345703125 490.516601562 510.87890625 447.055664062 570.025390625 409.719726562 c 1
EndSplineSet
Validated: 1
EndChar

StartChar: H
Encoding: 72 72 1
Width: 949
VWidth: 0
Flags: W
HStem: -0.0888672 21G<171.017 182.572> 275.213 47.8379<791.875 834.56> 783.868 20G<443.14 455.295>
VStem: 153.235 47.6895<0.108591 16.2061> 424.754 47.79<787.312 803.735> 629.82 47.6865<-2.00078 14.0889> 901.384 47.7422<785.195 801.617>
LayerCount: 2
Fore
SplineSet
437.506835938 562.232421875 m 0
 437.569335938 562.232421875 437.66796875 562.232421875 437.729492188 562.232421875 c 0
 443.401367188 562.232421875 451.236328125 558.95703125 455.216796875 554.916992188 c 0
 540.805664062 468.150390625 626.6484375 401.612304688 745.8125 350.630859375 c 1
 901.383789062 785.1953125 l 2
 904.532226562 794.340820312 914.934570312 801.75 924.604492188 801.75 c 0
 924.796875 801.75 925.109375 801.75 925.301757812 801.75 c 0
 938.452148438 801.358398438 949.125976562 790.361328125 949.125976562 777.205078125 c 0
 949.125976562 774.764648438 948.435546875 770.927734375 947.583984375 768.640625 c 2
 791.467773438 332.475585938 l 1
 800.162109375 329.264648438 809.029296875 326.124023438 818.080078125 323.05078125 c 0
 827.286132812 319.928710938 834.7578125 309.505859375 834.7578125 299.782226562 c 0
 834.7578125 286.220703125 823.750976562 275.212890625 810.1875 275.212890625 c 0
 807.94921875 275.212890625 804.4140625 275.796875 802.294921875 276.514648438 c 0
 792.998046875 279.671875 783.873046875 282.907226562 774.911132812 286.220703125 c 1
 677.506835938 14.0888671875 l 2
 674.290039062 5.0986328125 663.9296875 -2.1982421875 654.380859375 -2.1982421875 c 0
 640.823242188 -2.1982421875 629.8203125 8.8056640625 629.8203125 22.36328125 c 0
 629.8203125 24.716796875 630.46484375 28.4267578125 631.258789062 30.6435546875 c 2
 729.250976562 304.369140625 l 1
 607.71484375 356.209960938 517.137695312 424.466796875 431.443359375 509.487304688 c 1
 409.528320312 501.859375 388.717773438 493.830078125 368.856445312 485.37890625 c 1
 200.924804688 16.2060546875 l 2
 197.7109375 7.2109375 187.348632812 -0.0888671875 177.795898438 -0.0888671875 c 0
 164.23828125 -0.0888671875 153.235351562 10.9150390625 153.235351562 24.4716796875 c 0
 153.235351562 26.830078125 153.880859375 30.54296875 154.676757812 32.7607421875 c 2
 306.047851562 455.665039062 l 1
 218.047851562 409.506835938 148.704101562 352.624023438 79.6494140625 282.481445312 c 0
 75.640625 278.250976562 67.654296875 274.81640625 61.82421875 274.81640625 c 0
 48.267578125 274.81640625 37.2666015625 285.817382812 37.2666015625 299.374023438 c 0
 37.2666015625 305.081054688 40.580078125 312.951171875 44.6630859375 316.939453125 c 0
 127.481445312 401.063476562 214.071289062 469.190429688 329.729492188 521.827148438 c 1
 424.75390625 787.3125 l 2
 427.901367188 796.458007812 438.3046875 803.868164062 447.975585938 803.868164062 c 0
 448.180664062 803.868164062 448.514648438 803.868164062 448.720703125 803.868164062 c 0
 461.870117188 803.475585938 472.543945312 792.478515625 472.543945312 779.322265625 c 0
 472.543945312 776.881835938 471.853515625 773.044921875 471.001953125 770.7578125 c 2
 390.98046875 547.190429688 l 1
 403.627929688 551.94140625 416.609375 556.5390625 429.951171875 560.981445312 c 0
 431.981445312 561.65625 435.3671875 562.232421875 437.506835938 562.232421875 c 0
EndSplineSet
Validated: 1
EndChar

StartChar: E
Encoding: 69 69 2
Width: 867
VWidth: 0
Flags: W
HStem: -0.0771484 21G<187.01 198.563 465.812 469.743> 239.121 47.8467<794.91 863.766> 514.396 47.9316<516.042 590.118 787.259 860.059> 783.868 20G<461.389 470.057>
VStem: 169.229 47.6846<0.120326 16.2061>
LayerCount: 2
Fore
SplineSet
566.637695312 562.328125 m 0
 579.705078125 561.857421875 590.30859375 550.86328125 590.30859375 537.788085938 c 0
 590.30859375 527.890625 582.658203125 517.411132812 573.23046875 514.396484375 c 0
 487.791015625 485.946289062 418.978515625 451.7109375 358.075195312 410.517578125 c 1
 264.291015625 148.548828125 l 1
 320.653320312 111.05859375 383.875 79.4130859375 460.666015625 52.6845703125 c 1
 562.694335938 153.911132812 671.591796875 231.37109375 831.46875 285.658203125 c 0
 833.59375 286.380859375 837.141601562 286.967773438 839.385742188 286.967773438 c 0
 852.954101562 286.967773438 863.963867188 275.958007812 863.963867188 262.389648438 c 0
 863.963867188 252.67578125 856.5 242.250976562 847.302734375 239.12109375 c 0
 688.719726562 185.275390625 586.350585938 110.620117188 484.391601562 7.2548828125 c 0
 480.411132812 3.21875 472.578125 -0.0771484375 466.907226562 -0.0771484375 c 0
 464.717773438 -0.0771484375 461.25390625 0.501953125 459.173828125 1.19140625 c 0
 376.833007812 28.609375 308.213867188 61.900390625 247.334960938 101.182617188 c 1
 216.913085938 16.2060546875 l 2
 213.696289062 7.21875 203.336914062 -0.0771484375 193.7890625 -0.0771484375 c 0
 180.231445312 -0.0771484375 169.228515625 10.927734375 169.228515625 24.4833984375 c 0
 169.228515625 26.8369140625 169.872070312 30.5458984375 170.665039062 32.7607421875 c 2
 205.469726562 129.98046875 l 1
 158.4765625 164.364257812 115.700195312 202.759765625 73.8857421875 245.233398438 c 0
 69.865234375 249.211914062 66.6015625 257.032226562 66.6015625 262.690429688 c 0
 66.6015625 276.245117188 77.603515625 287.24609375 91.1591796875 287.24609375 c 0
 91.2001953125 287.24609375 91.265625 287.24609375 91.306640625 287.24609375 c 0
 97.0361328125 287.209960938 104.90625 283.826171875 108.872070312 279.690429688 c 0
 145.802734375 242.178710938 182.8125 208.4609375 222.712890625 178.147460938 c 1
 286.444335938 356.169921875 l 1
 259.422851562 333.390625 233.415039062 308.872070312 207.432617188 282.481445312 c 0
 203.422851562 278.25 195.4375 274.814453125 189.606445312 274.814453125 c 0
 176.049804688 274.814453125 165.048828125 285.817382812 165.048828125 299.372070312 c 0
 165.048828125 305.081054688 168.362304688 312.951171875 172.4453125 316.939453125 c 0
 218.072265625 363.286132812 264.84375 404.776367188 316.990234375 441.49609375 c 1
 422.528320312 736.30078125 l 1
 287.662109375 684.053710938 195.836914062 614.495117188 104.493164062 521.7109375 c 0
 100.483398438 517.48046875 92.498046875 514.046875 86.6689453125 514.046875 c 0
 73.1123046875 514.046875 62.111328125 525.047851562 62.111328125 538.604492188 c 0
 62.111328125 544.311523438 65.4248046875 552.180664062 69.505859375 556.168945312 c 0
 173.393554688 661.692382812 283.213867188 742.044921875 448.899414062 798.229492188 c 0
 453.301757812 801.686523438 458.765625 803.868164062 464.012695312 803.868164062 c 0
 464.21875 803.868164062 464.551757812 803.868164062 464.756835938 803.868164062 c 0
 475.357421875 803.551757812 484.346679688 796.346679688 487.435546875 786.673828125 c 1
 586.96875 687.170898438 688.139648438 614.7734375 842.875 562.232421875 c 0
 852.438476562 559.28515625 860.198242188 548.770507812 860.198242188 538.765625 c 0
 860.198242188 525.208984375 849.1953125 514.208007812 835.640625 514.208007812 c 0
 833.205078125 514.208007812 829.374023438 514.896484375 827.08984375 515.743164062 c 0
 676.021484375 567.041015625 570.490234375 639.048828125 473.244140625 732.2265625 c 1
 384.563476562 484.508789062 l 1
 435.6328125 513.741210938 492.358398438 539.211914062 557.734375 560.981445312 c 0
 559.896484375 561.733398438 563.508789062 562.328125 565.799804688 562.328125 c 0
 566.03125 562.328125 566.407226562 562.328125 566.637695312 562.328125 c 0
EndSplineSet
Validated: 1
EndChar

StartChar: L
Encoding: 76 76 3
Width: 847
VWidth: 0
Flags: W
HStem: -0.151367 48.0322<779.831 849.307>
VStem: 318.89 47.7979<785.467 801.891>
LayerCount: 2
Fore
SplineSet
451.591796875 287.1484375 m 0
 451.640625 287.1484375 451.719726562 287.1484375 451.768554688 287.1484375 c 0
 457.440429688 287.1484375 465.275390625 283.872070312 469.256835938 279.83203125 c 0
 571.232421875 176.452148438 673.5703125 101.736328125 832.177734375 47.880859375 c 0
 841.741210938 44.9326171875 849.504882812 34.4169921875 849.504882812 24.41015625 c 0
 849.504882812 10.8515625 838.5 -0.1513671875 824.94140625 -0.1513671875 c 0
 822.506835938 -0.1513671875 818.67578125 0.537109375 816.390625 1.3837890625 c 0
 656.512695312 55.671875 547.556640625 133.129882812 445.52734375 234.346679688 c 1
 291.80078125 180.84375 192.462890625 107.696289062 93.6767578125 7.3525390625 c 0
 91.3564453125 4.9921875 87.7265625 2.890625 83.9765625 1.546875 c 0
 80.205078125 -0.703125 75.9521484375 -2.0498046875 71.8486328125 -2.0498046875 c 0
 58.2890625 -2.0498046875 47.2841796875 8.9560546875 47.2841796875 22.5146484375 c 0
 47.2841796875 24.8681640625 47.927734375 28.578125 48.720703125 30.79296875 c 2
 318.889648438 785.466796875 l 2
 322.038085938 794.614257812 332.442382812 802.024414062 342.115234375 802.024414062 c 0
 342.321289062 802.024414062 342.655273438 802.024414062 342.860351562 802.024414062 c 0
 356.013671875 801.631835938 366.6875 790.633789062 366.6875 777.475585938 c 0
 366.6875 775.034179688 365.997070312 771.197265625 365.145507812 768.909179688 c 2
 128.426757812 107.672851562 l 1
 214.7265625 182.583007812 311.630859375 241.82421875 443.987304688 285.897460938 c 0
 446.03125 286.577148438 449.438476562 287.1484375 451.591796875 287.1484375 c 0
EndSplineSet
Validated: 1
EndChar

StartChar: O
Encoding: 79 79 4
Width: 865
VWidth: 0
Flags: W
HStem: 241.557 48.459<763.963 837.146> 520.214 48.6494<762.772 837.798> 791.2 20G<433.901 438.039>
LayerCount: 2
Fore
SplineSet
434.984375 811.200195312 m 0
 435.03515625 811.200195312 435.1171875 811.200195312 435.166015625 811.200195312 c 0
 440.911132812 811.200195312 448.84375 807.880859375 452.877929688 803.790039062 c 0
 556.159179688 699.083007812 659.809570312 623.41015625 820.452148438 568.86328125 c 0
 830.138671875 565.875976562 838 555.227539062 838 545.090820312 c 0
 838 531.358398438 826.854492188 520.213867188 813.123046875 520.213867188 c 0
 810.655273438 520.213867188 806.775390625 520.912109375 804.462890625 521.771484375 c 0
 786.561523438 527.849609375 769.291015625 534.215820312 752.590820312 540.869140625 c 1
 635.31640625 213.28125 l 1
 685.571289062 242.041015625 741.059570312 267.16796875 804.462890625 288.697265625 c 0
 806.609375 289.42578125 810.190429688 290.015625 812.458007812 290.015625 c 0
 826.196289062 290.015625 837.345703125 278.865234375 837.345703125 265.126953125 c 0
 837.345703125 255.278320312 829.77734375 244.71875 820.452148438 241.556640625 c 0
 659.809570312 187.009765625 556.159179688 111.384765625 452.877929688 6.6787109375 c 0
 448.84375 2.587890625 440.909179688 -0.7294921875 435.166015625 -0.7294921875 c 0
 432.946289062 -0.7294921875 429.438476562 -0.1630859375 427.333007812 0.5361328125 c 0
 256.150390625 57.537109375 143.517578125 139.590820312 37.0390625 247.747070312 c 0
 32.966796875 251.77734375 29.66015625 259.69921875 29.66015625 265.4296875 c 0
 29.66015625 279.161132812 40.8046875 290.306640625 54.537109375 290.306640625 c 0
 54.578125 290.306640625 54.64453125 290.306640625 54.6875 290.306640625 c 0
 60.490234375 290.26953125 68.462890625 286.840820312 72.4794921875 282.65234375 c 0
 85.7021484375 269.221679688 98.9345703125 256.271484375 112.302734375 243.783203125 c 1
 271.69140625 686.62109375 l 1
 196.470703125 643.014648438 134.366210938 590.676757812 72.4794921875 527.81640625 c 0
 68.41796875 523.529296875 60.3291015625 520.051757812 54.423828125 520.051757812 c 0
 40.69140625 520.051757812 29.5478515625 531.1953125 29.5478515625 544.927734375 c 0
 29.5478515625 550.708984375 32.904296875 558.6796875 37.0390625 562.721679688 c 0
 113.87109375 640.764648438 193.907226562 705.215820312 296.833007812 756.471679688 c 1
 297.033203125 757.028320312 l 2
 297.39453125 757.028320312 354.77734375 784.45703125 358.600585938 784.4609375 c 0
 380.456054688 793.446289062 403.318359375 801.936523438 427.333007812 809.932617188 c 0
 429.389648438 810.615234375 432.818359375 811.200195312 434.984375 811.200195312 c 0
566.89453125 169.7890625 m 1
 706.762695312 560.486328125 l 1
 595.436523438 611.604492188 510.025390625 677.27734375 428.892578125 757.76953125 c 1
 395.911132812 746.291992188 365.401367188 733.920898438 336.844726562 720.583007812 c 1
 153.213867188 207.459960938 l 1
 229.771484375 143.107421875 314.442382812 92.515625 428.842773438 52.69921875 c 1
 472.49609375 96.0087890625 517.390625 135.0234375 566.89453125 169.7890625 c 1
EndSplineSet
Validated: 1
EndChar

StartChar: N
Encoding: 78 78 5
Width: 940
VWidth: 0
Flags: W
HStem: 1.50293 21G<636.401 648.078> 783.238 20G<435.244 442.349>
VStem: 145.549 47.375<4.64373 20.6904> 618.737 47.6738<1.64028 18.5869> 888.835 47.4795<784.687 801.003>
LayerCount: 2
Fore
SplineSet
912.645507812 801.134765625 m 0
 925.711914062 800.744140625 936.314453125 789.819335938 936.314453125 776.748046875 c 0
 936.314453125 774.323242188 935.627929688 770.51171875 934.782226562 768.239257812 c 2
 666.411132812 18.5869140625 l 2
 663.448242188 9.1572265625 653.020507812 1.5029296875 643.135742188 1.5029296875 c 0
 629.666992188 1.5029296875 618.737304688 12.4326171875 618.737304688 25.9013671875 c 0
 618.737304688 28.517578125 619.532226562 32.609375 620.510742188 35.0341796875 c 2
 794.170898438 520.211914062 l 1
 647.41015625 571.528320312 544.188476562 643.010742188 448.692382812 735.137695312 c 1
 192.923828125 20.6904296875 l 2
 189.727539062 11.76171875 179.436523438 4.513671875 169.950195312 4.513671875 c 0
 156.481445312 4.513671875 145.548828125 15.4462890625 145.548828125 28.9150390625 c 0
 145.548828125 31.2529296875 146.188476562 34.9375 146.9765625 37.138671875 c 2
 396.4765625 734.078125 l 1
 265.263671875 682.403320312 175.176757812 613.916992188 85.5849609375 522.913085938 c 0
 81.6015625 518.709960938 73.66796875 515.298828125 67.8759765625 515.298828125 c 0
 54.408203125 515.298828125 43.478515625 526.228515625 43.478515625 539.697265625 c 0
 43.478515625 545.3671875 46.7705078125 553.184570312 50.8251953125 557.147460938 c 0
 152.556640625 660.483398438 260.015625 739.521484375 420.706054688 795.219726562 c 0
 425.400390625 800.022460938 432.068359375 803.23828125 438.418945312 803.23828125 c 0
 438.623046875 803.23828125 438.955078125 803.23828125 439.158203125 803.23828125 c 0
 445.540039062 803.047851562 451.333984375 800.34375 455.591796875 796.104492188 c 0
 456.776367188 795.318359375 457.838867188 794.467773438 458.713867188 793.580078125 c 0
 558.153320312 692.770507812 657.938476562 619.400390625 810.608398438 566.135742188 c 1
 888.834960938 784.686523438 l 2
 891.961914062 793.772460938 902.296875 801.134765625 911.90625 801.134765625 c 0
 912.110351562 801.134765625 912.442382812 801.134765625 912.645507812 801.134765625 c 0
EndSplineSet
Validated: 1
EndChar

StartChar: M
Encoding: 77 77 6
Width: 1409
VWidth: 0
Flags: MW
VStem: 146.582 48.2969<-7.80825 9.2998> 1089.72 47.9951<-6.89404 9.2998> 1363.05 48.1006<785.414 801.879>
LayerCount: 2
Fore
SplineSet
1387.16796875 802.076171875 m 0
 1400.40332031 801.681640625 1411.14648438 790.61328125 1411.14648438 777.372070312 c 0
 1411.14648438 774.915039062 1410.45117188 771.053710938 1409.59472656 768.751953125 c 2
 1137.71484375 9.2998046875 l 2
 1134.47753906 0.2509765625 1124.04980469 -7.0927734375 1114.43945312 -7.0927734375 c 0
 1100.79296875 -7.0927734375 1089.71972656 3.982421875 1089.71972656 17.6279296875 c 0
 1089.71972656 19.9970703125 1090.3671875 23.7314453125 1091.16601562 25.962890625 c 2
 1267.97753906 519.856445312 l 1
 1127.375 570.983398438 1026.67089844 641.041992188 933.478515625 730.426757812 c 1
 674.555664062 7.1689453125 l 2
 672.56640625 0.83984375 667.915039062 -4.6044921875 661.973632812 -7.556640625 c 0
 656.033203125 -10.509765625 648.881835938 -10.9267578125 642.63671875 -8.6904296875 c 0
 636.391601562 -6.451171875 631.135742188 -1.587890625 628.421875 4.466796875 c 0
 625.708007812 10.51953125 625.571289062 17.6796875 628.055664062 23.8310546875 c 2
 803.985351562 515.350585938 l 1
 655.306640625 567.338867188 550.734375 639.755859375 453.990234375 733.086914062 c 1
 194.87890625 9.2998046875 l 2
 191.876953125 -0.2529296875 181.313476562 -8.0078125 171.298828125 -8.0078125 c 0
 157.654296875 -8.0078125 146.58203125 3.0654296875 146.58203125 16.708984375 c 0
 146.58203125 19.359375 147.387695312 23.505859375 148.37890625 25.962890625 c 2
 401.095703125 732.013671875 l 1
 268.166992188 679.663085938 176.900390625 610.282226562 86.13671875 518.087890625 c 0
 82.1015625 513.829101562 74.0634765625 510.372070312 68.1953125 510.372070312 c 0
 54.55078125 510.372070312 43.478515625 521.4453125 43.478515625 535.088867188 c 0
 43.478515625 540.833007812 46.8134765625 548.754882812 50.9228515625 552.768554688 c 0
 153.984375 657.456054688 262.848632812 737.52734375 425.639648438 793.954101562 c 0
 430.395507812 798.819335938 437.149414062 802.076171875 443.583007812 802.076171875 c 0
 443.7890625 802.076171875 444.125 802.076171875 444.33203125 802.076171875 c 0
 450.796875 801.883789062 456.666992188 799.14453125 460.98046875 794.849609375 c 0
 462.180664062 794.052734375 463.256835938 793.19140625 464.142578125 792.291992188 c 0
 564.881835938 690.165039062 665.97265625 615.836914062 820.637695312 561.875 c 1
 899.88671875 783.283203125 l 2
 903.291015625 793.174804688 913.552734375 800.263671875 924.008789062 799.9453125 c 0
 931.525390625 799.720703125 938.83984375 795.833984375 943.268554688 789.762695312 c 0
 1040.4140625 691.731445312 1138.296875 619.487304688 1284.62890625 566.37109375 c 1
 1363.04589844 785.4140625 l 2
 1366.21386719 794.619140625 1376.68457031 802.076171875 1386.41894531 802.076171875 c 0
 1386.625 802.076171875 1386.9609375 802.076171875 1387.16796875 802.076171875 c 0
EndSplineSet
Validated: 1
EndChar

StartChar: C
Encoding: 67 67 7
Width: 862
VWidth: 0
Flags: W
HStem: 239.705 48.1504<782.777 852.049> 516.578 48.3359<795.831 870.375> 785.988 20G<468.459 474.008>
VStem: 173.38 47.9912<-2.96923 13.2109>
LayerCount: 2
Fore
SplineSet
74.60546875 288.142578125 m 0
 80.35546875 288.095703125 88.25390625 284.688476562 92.236328125 280.538085938 c 0
 134.508789062 237.598632812 176.890625 199.596679688 223.5390625 165.95703125 c 1
 428.92578125 739.670898438 l 1
 293.803710938 687.133789062 201.64453125 617.254882812 109.96484375 524.129882812 c 0
 105.9296875 519.872070312 97.8916015625 516.416015625 92.0244140625 516.416015625 c 0
 78.380859375 516.416015625 67.306640625 527.489257812 67.306640625 541.1328125 c 0
 67.306640625 546.877929688 70.6416015625 554.796875 74.7509765625 558.811523438 c 0
 180.111328125 665.831054688 291.534179688 747.12890625 460.4375 803.735351562 c 0
 463.53515625 805.16796875 466.844726562 805.98828125 470.073242188 805.98828125 c 0
 470.28125 805.98828125 470.6171875 805.98828125 470.82421875 805.98828125 c 0
 477.192382812 805.797851562 482.983398438 803.13671875 487.278320312 798.952148438 c 0
 487.502929688 798.748046875 487.717773438 798.54296875 487.922851562 798.334960938 c 0
 590.541992188 694.299804688 693.52734375 619.111328125 853.141601562 564.9140625 c 0
 862.765625 561.947265625 870.576171875 551.365234375 870.576171875 541.294921875 c 0
 870.576171875 527.650390625 859.502929688 516.578125 845.859375 516.578125 c 0
 843.407226562 516.578125 839.551757812 517.271484375 837.25390625 518.124023438 c 0
 684.825195312 569.881835938 578.458007812 642.58984375 480.379882812 736.7109375 c 1
 265.842773438 137.436523438 l 1
 318.217773438 104.51171875 376.734375 76.2783203125 446.314453125 52.05859375 c 1
 549.00390625 153.942382812 658.659179688 231.905273438 819.57421875 286.543945312 c 0
 821.70703125 287.267578125 825.265625 287.85546875 827.517578125 287.85546875 c 0
 841.16796875 287.85546875 852.248046875 276.776367188 852.248046875 263.125 c 0
 852.248046875 253.33984375 844.7265625 242.848632812 835.461914062 239.705078125 c 0
 675.849609375 185.509765625 572.862304688 110.369140625 470.243164062 6.3330078125 c 0
 466.234375 2.2646484375 458.345703125 -1.0380859375 452.6328125 -1.0380859375 c 0
 450.41796875 -1.0380859375 446.9140625 -0.470703125 444.813476562 0.23046875 c 0
 369.629882812 25.265625 305.813476562 55.1640625 248.8671875 90.017578125 c 1
 221.37109375 13.2109375 l 2
 218.129882812 4.169921875 207.704101562 -3.16796875 198.099609375 -3.16796875 c 0
 184.454101562 -3.16796875 173.379882812 7.9072265625 173.379882812 21.552734375 c 0
 173.379882812 23.9189453125 174.026367188 27.6474609375 174.822265625 29.8740234375 c 2
 206.309570312 117.828125 l 1
 152.290039062 155.440429688 104.051757812 198.0859375 57.0224609375 245.856445312 c 0
 52.9755859375 249.861328125 49.6904296875 257.732421875 49.6904296875 263.427734375 c 0
 49.6904296875 277.071289062 60.7626953125 288.142578125 74.4072265625 288.142578125 c 0
 74.4619140625 288.142578125 74.55078125 288.142578125 74.60546875 288.142578125 c 0
EndSplineSet
Validated: 1
EndChar

StartChar: F
Encoding: 70 70 8
Width: 803
VWidth: 0
Flags: W
HStem: 381.773 48.2441<427.2 500.481> 514.448 48.3369<729.894 803.118> 785.989 20G<401.928 410.584>
VStem: 107.861 47.9971<-2.98194 13.2129>
LayerCount: 2
Fore
SplineSet
476.853515625 430.017578125 m 0
 490.00390625 429.543945312 500.678710938 418.477539062 500.678710938 405.317382812 c 0
 500.678710938 395.35546875 492.977539062 384.80859375 483.489257812 381.7734375 c 0
 387.012449012 349.648240922 311.580703694 310.210901358 244.826517046 261.775152998 c 1
 155.858398438 13.212890625 l 2
 152.620117188 4.1640625 142.192382812 -3.1806640625 132.58203125 -3.1806640625 c 0
 118.936523438 -3.1806640625 107.861328125 7.8935546875 107.861328125 21.5390625 c 0
 107.861328125 23.91015625 108.510742188 27.64453125 109.309570312 29.875 c 2
 170.813391433 201.675901943 l 1
 152.053603349 184.8197892 133.653071388 167.077580748 115.267578125 148.40234375 c 0
 111.205078125 143.911132812 102.993164062 140.265625 96.9375 140.265625 c 0
 83.29296875 140.265625 72.220703125 151.33984375 72.220703125 164.982421875 c 0
 72.220703125 170.904296875 75.728515625 178.9921875 80.0537109375 183.03515625 c 0
 119.368125332 222.968666706 159.5267144 259.320772848 203.200869355 292.145043815 c 1
 362.81670489 738.005870176 l 1
 227.042821396 685.415565521 134.609659432 615.399126998 42.66015625 522 c 0
 38.623046875 517.741210938 30.5849609375 514.283203125 24.716796875 514.283203125 c 0
 11.072265625 514.283203125 0 525.357421875 0 539 c 0
 0 544.74609375 3.3359375 552.666992188 7.4453125 556.681640625 c 0
 112.02489586 662.908070548 222.577891791 743.793299572 389.388428758 800.343765222 c 0
 393.812851843 803.805702858 399.294762216 805.989257452 404.560546875 805.989257812 c 0
 404.75390625 805.989257812 405.069335938 805.989257812 405.262695312 805.989257812 c 0
 415.904715993 805.672030899 424.935505161 798.454035794 428.065912605 788.754380877 c 1
 528.267829585 688.568162691 630.107337103 615.678991487 785.884765625 562.78515625 c 0
 795.508789062 559.818359375 803.319335938 549.236328125 803.319335938 539.165039062 c 0
 803.319335938 525.521484375 792.247070312 514.448242188 778.602539062 514.448242188 c 0
 776.150390625 514.448242188 772.294921875 515.140625 769.997070312 515.994140625 c 0
 617.947874302 567.623408789 511.687952948 640.09888345 413.807577137 733.880388578 c 1
 272.569575489 339.284686521 l 1
 329.345764284 373.961869142 392.955897938 403.724314391 467.84375 428.661132812 c 0
 470.020507812 429.419921875 473.66015625 430.017578125 475.96484375 430.017578125 c 0
 476.209960938 430.017578125 476.608398438 430.017578125 476.853515625 430.017578125 c 0
EndSplineSet
Validated: 1
EndChar

StartChar: I
Encoding: 73 73 9
Width: 1005
VWidth: 0
Flags: W
HStem: 0.898438 21G<376.896 380.655> 229.263 45.8428<0.06839 70.8869> 525.426 45.8418<936.767 1005.68> 784.078 20G<627.086 636.879>
LayerCount: 2
Fore
SplineSet
737.431640625 275.154296875 m 0
 737.678710938 275.154296875 738.079101562 275.154296875 738.325195312 275.154296875 c 0
 751.264648438 275.154296875 761.767578125 264.669921875 761.767578125 251.73046875 c 0
 761.767578125 246.322265625 758.643554688 238.850585938 754.795898438 235.05078125 c 0
 654.459960938 133.135742188 548.326171875 55.814453125 387.020507812 2.1015625 c 0
 385.028320312 1.4365234375 381.706054688 0.8984375 379.604492188 0.8984375 c 0
 374.186523438 0.8984375 366.705078125 4.03125 362.903320312 7.8896484375 c 0
 265.580078125 106.556640625 167.91015625 177.864257812 16.5341796875 229.262695312 c 0
 7.4072265625 232.078125 0 242.112304688 0 251.6640625 c 0
 0 264.604492188 10.5009765625 275.10546875 23.44140625 275.10546875 c 0
 25.7666015625 275.10546875 29.4228515625 274.448242188 31.6025390625 273.638671875 c 0
 168.210769562 227.253057681 265.866362699 163.141774354 354.697505302 80.9004590318 c 1
 589.997681897 738.175167104 l 1
 460.158386614 688.219089793 372.042373365 621.615573948 284.396484375 532.587890625 c 0
 280.569335938 528.547851562 272.9453125 525.26953125 267.380859375 525.26953125 c 0
 254.440429688 525.26953125 243.938476562 535.771484375 243.938476562 548.7109375 c 0
 243.938476562 554.16015625 247.102539062 561.671875 251 565.479492188 c 0
 350.194371309 666.235964376 455.0105553 742.908361969 613.245125501 796.539371998 c 0
 617.746179006 801.062664555 624.07203196 804.078124755 630.100585938 804.078125 c 0
 630.296875 804.078125 630.615234375 804.078125 630.810546875 804.078125 c 0
 642.948158479 803.716470632 652.875300071 793.89024289 653.518613058 781.888214684 c 1
 747.379819114 688.747779094 843.371646229 620.788986934 989.21484375 571.267578125 c 0
 998.342773438 568.453125 1005.75097656 558.41796875 1005.75097656 548.8671875 c 0
 1005.75097656 535.926757812 995.249023438 525.42578125 982.30859375 525.42578125 c 0
 979.984375 525.42578125 976.328125 526.083007812 974.147460938 526.891601562 c 0
 830.643013125 575.620660683 730.129384524 643.902544171 637.668798342 732.218155185 c 1
 395.113886249 54.6819485115 l 1
 536.420923843 105.433809542 629.18437623 174.273560227 721.399414062 267.942382812 c 0
 725.020507812 271.723632812 732.202148438 274.955078125 737.431640625 275.154296875 c 0
EndSplineSet
Validated: 1
EndChar

StartChar: T
Encoding: 84 84 10
Width: 847
VWidth: 0
Flags: W
HStem: 0.550781 21G<172.555 184.307> 517.865 48.0244<773.563 847.629> 785.408 20G<448.256 453.639>
VStem: 154.775 47.9863<0.748188 17.7461>
LayerCount: 2
Fore
SplineSet
440.291015625 803.171875 m 0
 443.3671875 804.59375 446.653320312 805.408203125 449.859375 805.408203125 c 0
 450.065429688 805.408203125 450.399414062 805.408203125 450.60546875 805.408203125 c 0
 456.671875 805.227539062 462.2109375 802.7890625 466.41796875 798.923828125 c 0
 466.856445312 798.559570312 467.266601562 798.185546875 467.641601562 797.8046875 c 0
 569.598632812 694.440429688 671.919921875 619.737304688 830.50390625 565.889648438 c 0
 840.065429688 562.942382812 847.826171875 552.428710938 847.826171875 542.422851562 c 0
 847.826171875 528.866210938 836.825195312 517.865234375 823.268554688 517.865234375 c 0
 820.83203125 517.865234375 817.001953125 518.5546875 814.71875 519.401367188 c 0
 663.2734375 570.825195312 557.548828125 643.064453125 460.099609375 736.579101562 c 1
 202.76171875 17.74609375 l 2
 199.779296875 8.2548828125 189.282226562 0.55078125 179.33203125 0.55078125 c 0
 165.77734375 0.55078125 154.775390625 11.5517578125 154.775390625 25.107421875 c 0
 154.775390625 27.7412109375 155.575195312 31.8603515625 156.561523438 34.30078125 c 2
 408.981445312 739.520507812 l 1
 274.729492188 687.322265625 183.163085938 617.892578125 92.07421875 525.368164062 c 0
 88.0634765625 521.13671875 80.0771484375 517.702148438 74.2470703125 517.702148438 c 0
 60.6904296875 517.702148438 49.689453125 528.704101562 49.689453125 542.258789062 c 0
 49.689453125 547.967773438 53.00390625 555.837890625 57.0869140625 559.826171875 c 0
 161.768554688 666.15625 272.473632812 746.9296875 440.291015625 803.171875 c 0
EndSplineSet
Validated: 1
EndChar

StartChar: Y
Encoding: 89 89 11
Width: 859
VWidth: 0
Flags: W
HStem: 1.48633 21G<273.893 285.356> 752.376 47.5303<791.951 860.392>
VStem: 256.225 47.3545<1.61583 17.5938>
LayerCount: 2
Fore
SplineSet
92.9169921875 800.188476562 m 0
 98.6005859375 800.131835938 106.396484375 796.747070312 110.3203125 792.633789062 c 0
 208.439453125 692.96875 307.149414062 620.296875 459.830078125 567.150390625 c 1
 561.194335938 667.719726562 669.43359375 744.676757812 828.2734375 798.610351562 c 0
 830.377929688 799.326171875 833.892578125 799.90625 836.116210938 799.90625 c 0
 849.58984375 799.90625 860.525390625 788.96875 860.525390625 775.495117188 c 0
 860.525390625 765.834960938 853.102539062 755.479492188 843.955078125 752.375976562 c 0
 688.62890625 699.635742188 587.626953125 626.799804688 487.7421875 526.350585938 c 1
 303.579101562 17.59375 l 2
 300.365234375 8.703125 290.083984375 1.486328125 280.62890625 1.486328125 c 0
 267.157226562 1.486328125 256.224609375 12.4189453125 256.224609375 25.888671875 c 0
 256.224609375 28.25 256.875976562 31.9658203125 257.678710938 34.1845703125 c 2
 434.989257812 524.05859375 l 1
 280.060546875 579.537109375 175.0703125 657.372070312 75.560546875 758.448242188 c 0
 71.5654296875 762.401367188 68.3232421875 770.170898438 68.3232421875 775.791992188 c 0
 68.3232421875 789.260742188 79.2529296875 800.188476562 92.720703125 800.188476562 c 0
 92.7744140625 800.188476562 92.86328125 800.188476562 92.9169921875 800.188476562 c 0
EndSplineSet
Validated: 1
EndChar

StartChar: U
Encoding: 85 85 12
Width: 891
VWidth: 0
Flags: W
HStem: 239.667 48.1504<765.316 839.576> 785.95 20G<334.745 346.723 858.35 870.585>
VStem: 316.188 48.2471<788.852 805.8> 566.216 48.2988<-3.93427 13.1738> 839.846 48.0996<789.287 805.753>
LayerCount: 2
Fore
SplineSet
863.967773438 805.950195312 m 0
 877.203125 805.5546875 887.9453125 794.485351562 887.9453125 781.244140625 c 0
 887.9453125 778.7890625 887.249023438 774.927734375 886.39453125 772.625 c 2
 696.290039062 241.598632812 l 1
 730.529296875 258.004882812 767.241210938 272.970703125 807.1015625 286.505859375 c 0
 809.234375 287.229492188 812.79296875 287.817382812 815.045898438 287.817382812 c 0
 828.696289062 287.817382812 839.774414062 276.73828125 839.774414062 263.086914062 c 0
 839.774414062 253.302734375 832.254882812 242.811523438 822.989257812 239.666992188 c 0
 766.369140625 220.44140625 716.874023438 198.581054688 671.993164062 173.729492188 c 1
 614.514648438 13.173828125 l 2
 611.51171875 3.619140625 600.947265625 -4.1337890625 590.932617188 -4.1337890625 c 0
 577.290039062 -4.1337890625 566.215820312 6.9384765625 566.215820312 20.5830078125 c 0
 566.215820312 23.2333984375 567.021484375 27.37890625 568.014648438 29.8359375 c 2
 604.555664062 131.923828125 l 1
 551.936523438 95.6103515625 504.815429688 53.9892578125 457.770507812 6.294921875 c 0
 453.762695312 2.232421875 445.87890625 -1.0654296875 440.172851562 -1.0654296875 c 0
 437.967773438 -1.0654296875 434.481445312 -0.5009765625 432.389648438 0.1923828125 c 0
 262.303710938 56.828125 150.393554688 138.35546875 44.5986328125 245.818359375 c 0
 40.5517578125 249.82421875 37.2666015625 257.6953125 37.2666015625 263.387695312 c 0
 37.2666015625 277.032226562 48.3388671875 288.104492188 61.9833984375 288.104492188 c 0
 62.0244140625 288.104492188 62.0908203125 288.104492188 62.1328125 288.104492188 c 0
 67.8984375 288.068359375 75.8193359375 284.661132812 79.8125 280.5 c 0
 96.09375 263.962890625 112.390625 248.157226562 128.939453125 233.052734375 c 1
 316.1875 788.8515625 l 2
 319.231445312 798.318359375 329.7734375 805.998046875 339.716796875 805.998046875 c 0
 339.787109375 805.998046875 339.899414062 805.998046875 339.970703125 805.998046875 c 0
 353.474609375 805.860351562 364.434570312 794.788085938 364.434570312 781.283203125 c 0
 364.434570312 778.947265625 363.803710938 775.263671875 363.02734375 773.060546875 c 2
 169.325195312 198.15625 l 2
 169.319335938 198.135742188 169.3125 198.114257812 169.306640625 198.09375 c 0
 242.954101562 137.798828125 324.82421875 89.9814453125 433.890625 52.0205078125 c 1
 494.345703125 111.999023438 557.196289062 163.688476562 631.502929688 207.209960938 c 1
 839.845703125 789.287109375 l 2
 843.012695312 798.4921875 853.483398438 805.950195312 863.216796875 805.950195312 c 0
 863.423828125 805.950195312 863.759765625 805.950195312 863.967773438 805.950195312 c 0
EndSplineSet
Validated: 1
EndChar

StartChar: W
Encoding: 87 87 13
Width: 1285
VWidth: 0
Flags: W
HStem: 788.588 20G<73.9326 86.6416>
VStem: 55.9004 49.9619<791.872 808.303> 339.916 50.168<-3.8235 13.2539> 537.858 50.127<-9.85183 7.10547> 740.532 50.0107<569.821 586.36> 1234.95 49.9619<783.536 799.973>
LayerCount: 2
Fore
SplineSet
765.538085938 586.634765625 m 0
 779.340820312 586.287109375 790.54296875 575.181640625 790.54296875 561.845703125 c 0
 790.54296875 559.3828125 789.821289062 555.509765625 788.932617188 553.202148438 c 2
 662.048828125 208.380859375 l 1
 745.247070312 139.032226562 836.329101562 85.2744140625 960.706054688 43.6396484375 c 1
 1234.953125 783.536132812 l 2
 1238.24414062 792.76953125 1249.11914062 800.252929688 1259.22949219 800.252929688 c 0
 1259.43066406 800.252929688 1259.7578125 800.252929688 1259.95898438 800.252929688 c 0
 1273.73535156 799.880859375 1284.91503906 788.775390625 1284.91503906 775.46484375 c 0
 1284.91503906 773.001953125 1284.19335938 769.127929688 1283.30371094 766.8203125 c 2
 1000.89941406 4.9189453125 l 2
 997.536132812 -4.158203125 986.705078125 -11.5244140625 976.724609375 -11.5244140625 c 0
 971.111328125 -11.5244140625 965.916992188 -9.78515625 961.690429688 -6.833984375 c 0
 960.909179688 -6.9033203125 960.118164062 -6.9384765625 959.318359375 -6.9384765625 c 0
 956.978515625 -6.9384765625 953.263671875 -6.3505859375 951.047851562 -5.625 c 0
 824.865234375 35.7568359375 729.067382812 90.4755859375 643.799804688 158.786132812 c 1
 587.985351562 7.10546875 l 2
 584.833007812 -2.4130859375 573.876953125 -10.1376953125 563.53125 -10.1376953125 c 0
 549.359375 -10.1376953125 537.858398438 0.970703125 537.858398438 14.658203125 c 0
 537.858398438 17.2509765625 538.653320312 21.3115234375 539.634765625 23.724609375 c 2
 602.216796875 193.83984375 l 1
 589.125 205.420898438 576.215820312 217.345703125 563.409179688 229.6171875 c 1
 480.182617188 201.639648438 412.201171875 168.326171875 351.65234375 128.6328125 c 1
 388.215820312 29.9697265625 l 2
 389.247070312 27.505859375 390.083984375 23.3466796875 390.083984375 20.6875 c 0
 390.083984375 6.9990234375 378.581054688 -4.109375 364.409179688 -4.109375 c 0
 354.006835938 -4.109375 343.034179688 3.669921875 339.916015625 13.25390625 c 2
 308.390625 98.306640625 l 1
 269.046875 68.9033203125 232.297851562 36.380859375 195.624023438 0.4013671875 c 0
 191.4765625 -3.7734375 183.249023438 -7.228515625 177.260742188 -7.228515625 c 0
 177.217773438 -7.228515625 177.147460938 -7.228515625 177.104492188 -7.228515625 c 0
 162.93359375 -7.228515625 151.431640625 3.8818359375 151.431640625 17.568359375 c 0
 151.431640625 23.28125 154.842773438 31.177734375 159.046875 35.1943359375 c 0
 200.88671875 76.2412109375 243.647460938 113.517578125 290.313476562 147.079101562 c 1
 57.51171875 775.155273438 l 2
 56.6220703125 777.46484375 55.900390625 781.338867188 55.900390625 783.803710938 c 0
 55.900390625 797.087890625 67.05859375 808.19140625 80.806640625 808.587890625 c 0
 81.0224609375 808.587890625 81.37109375 808.587890625 81.5869140625 808.587890625 c 0
 91.6962890625 808.587890625 102.571289062 801.10546875 105.862304688 791.872070312 c 2
 333.889648438 176.564453125 l 1
 399.145507812 218.010742188 472.826171875 252.982421875 561.849609375 281.61328125 c 0
 564.022460938 282.309570312 567.64453125 282.875 569.93359375 282.875 c 0
 575.861328125 282.875 584.049804688 279.567382812 588.212890625 275.490234375 c 0
 599.068359375 264.861328125 609.927734375 254.533203125 620.852539062 244.497070312 c 1
 740.532226562 569.821289062 l 2
 743.797851562 579.106445312 754.689453125 586.634765625 764.842773438 586.634765625 c 0
 765.034179688 586.634765625 765.345703125 586.634765625 765.538085938 586.634765625 c 0
EndSplineSet
Validated: 1
EndChar

StartChar: K
Encoding: 75 75 14
Width: 837
VWidth: 0
Flags: W
HStem: -0.15625 48.0742<762.079 836.029> 784.884 20G<57.9229 62.9712>
VStem: 33.5293 47.8506<788.268 804.692> 586.059 47.8379<786.147 802.528>
LayerCount: 2
Fore
SplineSet
56.666015625 804.83984375 m 0
 57.068359375 804.83984375 57.7216796875 804.883789062 58.1240234375 804.883789062 c 0
 67.818359375 804.883789062 78.23828125 797.440429688 81.3798828125 788.267578125 c 2
 283.329101562 224.053710938 l 1
 320.169921875 243.47265625 359.978515625 261.083984375 403.75390625 276.91015625 c 1
 586.05859375 786.147460938 l 2
 589.209960938 795.30078125 599.623046875 802.719726562 609.302734375 802.719726562 c 0
 609.495117188 802.719726562 609.80859375 802.719726562 610.000976562 802.719726562 c 0
 623.190429688 802.3515625 633.896484375 791.342773438 633.896484375 778.146484375 c 0
 633.896484375 775.704101562 633.205078125 771.865234375 632.354492188 769.576171875 c 2
 456.724609375 278.983398438 l 1
 558.431640625 176.075195312 660.697265625 101.631835938 818.88671875 47.91796875 c 0
 828.458984375 44.9677734375 836.2265625 34.4423828125 836.2265625 24.4267578125 c 0
 836.2265625 10.8564453125 825.21484375 -0.15625 811.64453125 -0.15625 c 0
 809.205078125 -0.15625 805.37109375 0.5322265625 803.0859375 1.380859375 c 0
 646.5 54.55078125 538.740234375 129.94921875 438.50390625 228.086914062 c 1
 361.94921875 14.244140625 l 2
 358.727539062 5.2470703125 348.358398438 -2.0556640625 338.801757812 -2.0556640625 c 0
 336.051757812 -2.0556640625 333.40625 -1.603515625 330.9375 -0.76953125 c 0
 330.278320312 -0.822265625 329.61328125 -0.849609375 328.94140625 -0.849609375 c 0
 318.98046875 -0.849609375 308.474609375 6.861328125 305.489257812 16.36328125 c 2
 256.776367188 152.432617188 l 1
 191.16796875 111.794921875 135.341796875 63.8798828125 79.693359375 7.3544921875 c 0
 75.6787109375 3.1201171875 67.6865234375 -0.318359375 61.849609375 -0.318359375 c 0
 48.28125 -0.318359375 37.2666015625 10.6953125 37.2666015625 24.265625 c 0
 37.2666015625 29.9794921875 40.5830078125 37.85546875 44.6708984375 41.84765625 c 0
 104.591796875 102.712890625 166.485351562 155.213867188 239.912109375 199.540039062 c 1
 35.083984375 771.6953125 l 2
 34.2255859375 773.993164062 33.529296875 777.846679688 33.529296875 780.298828125 c 0
 33.529296875 793.09375 43.8935546875 804.086914062 56.666015625 804.83984375 c 0
300.036132812 177.375976562 m 1
 334.075195312 82.2763671875 l 1
 381.84765625 215.720703125 l 1
 352.702148438 203.822265625 325.5859375 191.0625 300.036132812 177.375976562 c 1
EndSplineSet
Validated: 1
EndChar

StartChar: Q
Encoding: 81 81 15
Width: 884
VWidth: 0
Flags: W
HStem: -24.1904 48.0244<810.991 883.535> 513.545 48.0254<723.824 797.889>
LayerCount: 2
Fore
SplineSet
26.9697265625 286.583984375 m 0
 32.6826171875 286.536132812 40.5302734375 283.151367188 44.4873046875 279.028320312 c 0
 57.0205078125 266.297851562 69.5615234375 254.00390625 82.224609375 242.131835938 c 1
 239.040039062 677.818359375 l 1
 164.783203125 634.770507812 103.474609375 583.103515625 42.3818359375 521.049804688 c 0
 38.3720703125 516.817382812 30.38671875 513.383789062 24.5576171875 513.383789062 c 0
 11.0009765625 513.383789062 0 524.384765625 0 537.94140625 c 0
 0 543.6484375 3.3134765625 551.516601562 7.39453125 555.506835938 c 0
 83.2431640625 632.548828125 162.251953125 696.174804688 263.858398438 746.7734375 c 1
 264.055664062 747.322265625 l 2
 264.412109375 747.322265625 321.049804688 774.395507812 324.833007812 774.403320312 c 0
 346.408203125 783.2734375 368.977539062 791.654296875 392.684570312 799.548828125 c 0
 394.71484375 800.22265625 398.100585938 800.799804688 400.239257812 800.799804688 c 0
 400.2890625 800.799804688 400.3671875 800.799804688 400.415039062 800.799804688 c 0
 406.0859375 800.799804688 413.919921875 797.5234375 417.90234375 793.485351562 c 0
 519.861328125 690.120117188 622.180664062 615.41796875 780.764648438 561.5703125 c 0
 790.327148438 558.62109375 798.086914062 548.109375 798.086914062 538.102539062 c 0
 798.086914062 524.545898438 787.083984375 513.544921875 773.529296875 513.544921875 c 0
 771.09375 513.544921875 767.262695312 514.233398438 764.979492188 515.08203125 c 0
 747.307617188 521.08203125 730.259765625 527.366210938 713.7734375 533.934570312 c 1
 587.9609375 182.501953125 l 2
 591.012695312 179.688476562 593.349609375 176.112304688 594.668945312 172.075195312 c 0
 670.295898438 110.3984375 754.291992188 61.9033203125 866.409179688 23.833984375 c 0
 875.971679688 20.88671875 883.732421875 10.3720703125 883.732421875 0.3671875 c 0
 883.732421875 -13.189453125 872.73046875 -24.1904296875 859.173828125 -24.1904296875 c 0
 856.739257812 -24.1904296875 852.909179688 -23.5029296875 850.624023438 -22.6552734375 c 0
 734.8984375 16.640625 645.869140625 68.0908203125 566.827148438 131.901367188 c 1
 514.208007812 95.70703125 467.041015625 54.2294921875 420.0546875 6.5927734375 c 0
 416.0703125 2.548828125 408.232421875 -0.732421875 402.55859375 -0.732421875 c 0
 400.356445312 -0.732421875 396.875976562 -0.1669921875 394.7890625 0.529296875 c 0
 331.890625 21.47265625 277 45.84375 227.451171875 73.693359375 c 1
 192.958984375 46.322265625 160.439453125 16.2841796875 127.979492188 -16.6875 c 0
 123.969726562 -20.91796875 115.984375 -24.3525390625 110.155273438 -24.3525390625 c 0
 96.5986328125 -24.3525390625 85.5966796875 -13.3505859375 85.5966796875 0.2041015625 c 0
 85.5966796875 5.912109375 88.9091796875 13.7822265625 92.9921875 17.7705078125 c 0
 122.109375 47.345703125 151.693359375 74.9453125 182.84375 100.588867188 c 1
 118.826171875 141.908203125 63.365234375 189.856445312 9.5 244.571289062 c 0
 5.478515625 248.548828125 2.21484375 256.369140625 2.21484375 262.02734375 c 0
 2.21484375 275.583007812 13.216796875 286.583984375 26.7724609375 286.583984375 c 0
 26.8271484375 286.583984375 26.9150390625 286.583984375 26.9697265625 286.583984375 c 0
485.836914062 263.063476562 m 0
 485.8984375 263.063476562 485.999023438 263.063476562 486.059570312 263.063476562 c 0
 491.73046875 263.063476562 499.56640625 259.786132812 503.546875 255.748046875 c 0
 517.950195312 241.146484375 532.358398438 227.1171875 546.934570312 213.637695312 c 1
 668.53125 553.30078125 l 1
 558.631835938 603.764648438 474.317382812 668.594726562 394.224609375 748.0546875 c 1
 361.666992188 736.724609375 331.546875 724.51171875 303.35546875 711.344726562 c 1
 122.568359375 206.1640625 l 1
 154.415039062 179.2734375 187.663085938 154.8046875 223.9140625 132.536132812 c 1
 295.213867188 184.805664062 376.202148438 227.8203125 478.28125 261.8125 c 0
 480.311523438 262.487304688 483.697265625 263.063476562 485.836914062 263.063476562 c 0
270.794921875 105.891601562 m 1
 308.678710938 86.0146484375 350.017578125 68.126953125 396.28125 52.0234375 c 1
 438.09375 93.5263671875 480.974609375 131.185546875 528.141601562 164.766601562 c 1
 511.756835938 179.376953125 495.705078125 194.55859375 479.821289062 210.318359375 c 1
 397.229492188 181.577148438 330.337890625 147.154296875 270.794921875 105.891601562 c 1
EndSplineSet
Validated: 1
EndChar

StartChar: G
Encoding: 71 71 16
Width: 830
VWidth: 0
Flags: W
HStem: 340 49<545.205 570> 515 49<753.186 828.794> 787 20G<422.5 428>
VStem: 125 48<-9.78552 7>
LayerCount: 2
Fore
SplineSet
569 389 m 0
 570 389 l 0
 572 389 576 388 578 388 c 0
 629 370 675 351 718 329 c 0
 746 314 772 299 797 282 c 0
 799 281 800 280 801 278 c 0
 807 274 810 267 810 259 c 0
 810 249 803 239 793 236 c 0
 632 181 528 105 425 0 c 0
 421 -4 413 -7 407 -7 c 0
 405 -7 401 -7 399 -6 c 0
 323 19 259 49 201 84 c 1
 173 7 l 2
 170 -2 160 -10 150 -10 c 0
 136 -10 125 2 125 15 c 0
 125 18 126 22 126 24 c 2
 158 113 l 1
 104 151 55 194 7 242 c 0
 3 246 0 254 0 260 c 0
 0 273 11 285 25 285 c 0
 31 285 39 281 43 277 c 0
 86 234 128 195 176 161 c 1
 383 740 l 1
 246 687 153 617 61 523 c 0
 57 519 49 515 43 515 c 0
 29 515 18 526 18 540 c 0
 18 546 21 554 25 558 c 0
 132 666 244 748 415 805 c 0
 418 807 421 807 424 807 c 0
 425 807 l 0
 431 807 437 805 441 801 c 0
 442 800 l 0
 546 695 650 619 811 564 c 0
 821 561 829 550 829 540 c 0
 829 526 818 515 804 515 c 0
 801 515 798 516 795 517 c 0
 641 569 534 642 435 737 c 1
 218 132 l 1
 271 99 330 71 400 46 c 1
 494 139 592 212 729 265 c 1
 718 272 706 278 695 285 c 0
 655 305 611 324 562 340 c 0
 553 343 545 354 545 364 c 0
 545 377 556 388 569 389 c 0
EndSplineSet
Validated: 1
EndChar

StartChar: D
Encoding: 68 68 17
Width: 882
VWidth: 0
Flags: HW
HStem: 516.877 48.9609<806.667 881.749> 790.021 20G<474.608 480.32>
VStem: 175.758 48.6133<-9.38462 7.01562>
LayerCount: 2
Fore
SplineSet
192.13671875 285.4453125 m 0
 197.984375 285.396484375 206.0078125 281.923828125 210.044921875 277.693359375 c 0
 224.330078125 263.18359375 238.626953125 249.229492188 253.092773438 235.811523438 c 1
 434.631835938 742.876953125 l 1
 297.749023438 689.658203125 204.396484375 618.859375 111.52734375 524.52734375 c 0
 107.439453125 520.215820312 99.2998046875 516.716796875 93.359375 516.716796875 c 0
 79.5390625 516.716796875 68.3232421875 527.932617188 68.3232421875 541.752929688 c 0
 68.3232421875 547.569335938 71.69921875 555.58984375 75.859375 559.65625 c 0
 182.512695312 667.9921875 295.306640625 750.2578125 466.219726562 807.58984375 c 0
 469.447265625 809.133789062 472.916992188 810.021484375 476.299804688 810.021484375 c 0
 476.491210938 810.021484375 476.802734375 810.021484375 476.994140625 810.021484375 c 0
 483.646484375 809.840820312 489.677734375 807.002929688 494.075195312 802.553710938 c 0
 494.173828125 802.458984375 494.268554688 802.365234375 494.362304688 802.26953125 c 0
 555.504882812 740.282226562 616.776367188 688.408203125 689.775390625 645.0234375 c 0
 697.079101562 644.5 704.564453125 640.049804688 708.998046875 633.94921875 c 0
 755.079101562 608.2265625 805.952148438 585.6484375 864.29296875 565.837890625 c 0
 874.041015625 562.831054688 881.953125 552.114257812 881.953125 541.912109375 c 0
 881.953125 528.09375 870.737304688 516.876953125 856.916992188 516.876953125 c 0
 854.43359375 516.876953125 850.529296875 517.579101562 848.201171875 518.443359375 c 0
 807.396484375 532.298828125 769.84765625 547.633789062 734.852539062 564.4609375 c 1
 859.6328125 215.923828125 l 2
 860.532226562 213.553710938 861.26171875 209.572265625 861.26171875 207.038085938 c 0
 861.26171875 193.217773438 850.046875 182.001953125 836.2265625 182.001953125 c 0
 835.381835938 182.001953125 834.53125 182.057617188 833.681640625 182.1640625 c 0
 739.962890625 134.053710938 666.255859375 74.3876953125 592.879882812 0 c 0
 588.821289062 -4.1162109375 580.834960938 -7.4560546875 575.0546875 -7.4560546875 c 0
 572.822265625 -7.4560546875 569.290039062 -6.8857421875 567.170898438 -6.181640625 c 0
 447.439453125 33.685546875 356.169921875 85.708984375 275.66015625 150.2734375 c 1
 224.37109375 7.015625 l 2
 221.08984375 -2.1484375 210.529296875 -9.5859375 200.796875 -9.5859375 c 0
 186.974609375 -9.5859375 175.7578125 1.6328125 175.7578125 15.455078125 c 0
 175.7578125 17.8544921875 176.4140625 21.6337890625 177.221679688 23.8935546875 c 2
 234.83984375 184.831054688 l 1
 214.25 203.178710938 194.20703125 222.421875 174.375976562 242.565429688 c 0
 170.249023438 246.625 166.899414062 254.620117188 166.899414062 260.41015625 c 0
 166.899414062 274.23046875 178.116210938 285.4453125 191.936523438 285.4453125 c 0
 191.991210938 285.4453125 192.08203125 285.4453125 192.13671875 285.4453125 c 0
669.12890625 599.469726562 m 1
 601.130859375 639.440429688 542.594726562 686.188476562 486.721679688 739.8046875 c 1
 293.520507812 200.158203125 l 1
 369.9609375 136.301757812 454.610351562 85.9990234375 568.59375 46.3154296875 c 1
 639.124023438 116.321289062 712.79296875 175.301757812 803.891601562 223.09375 c 1
 669.12890625 599.469726562 l 1
EndSplineSet
EndChar

StartChar: V
Encoding: 86 86 18
Width: 905
VWidth: 0
Flags: W
VStem: 0 48.4395<784.29 800.935> 857.35 48.4287<784.339 800.912>
LayerCount: 2
Fore
SplineSet
881.626953125 801.108398438 m 0
 894.95703125 800.720703125 905.778320312 789.579101562 905.778320312 776.243164062 c 0
 905.778320312 773.756835938 905.069335938 769.84765625 904.198242188 767.51953125 c 2
 717.095703125 245.553710938 l 2
 714.075195312 235.9375 703.442382812 228.1328125 693.36328125 228.1328125 c 0
 689.885742188 228.1328125 686.575195312 228.84765625 683.568359375 230.137695312 c 0
 527.630859375 175.9375 427.092773438 101.721679688 326.94921875 0 c 0
 324.720703125 -2.2666015625 321.30078125 -4.2978515625 317.71484375 -5.6630859375 c 0
 313.153320312 -10.8955078125 306.439453125 -14.203125 298.958984375 -14.203125 c 0
 288.879882812 -14.203125 278.247070312 -6.3984375 275.225585938 3.2177734375 c 2
 1.591796875 767.51953125 l 2
 0.712890625 769.857421875 0 773.748046875 0 776.243164062 c 0
 0 789.200195312 10.49609375 800.356445312 23.431640625 801.108398438 c 0
 23.8330078125 801.108398438 24.486328125 801.108398438 24.8896484375 801.108398438 c 0
 34.72265625 801.108398438 45.2724609375 793.596679688 48.439453125 784.290039062 c 2
 310.048828125 53.4501953125 l 1
 410.147460938 151.461914062 518.235351562 226.799804688 676.771484375 280.396484375 c 1
 857.349609375 784.338867188 l 2
 860.538085938 793.6015625 871.075195312 801.108398438 880.87109375 801.108398438 c 0
 881.080078125 801.108398438 881.41796875 801.108398438 881.626953125 801.108398438 c 0
EndSplineSet
Validated: 1
EndChar

StartChar: S
Encoding: 83 83 20
Width: 814
VWidth: 0
Flags: W
HStem: 234.878 48.46<737.655 812.029> 509.636 48.6494<737.879 808.243> 786.959 20G<128.062 140.855>
VStem: 111.099 48.3896<790.14 806.786>
LayerCount: 2
Fore
SplineSet
405.432617188 800.62109375 m 0
 405.481445312 800.62109375 405.560546875 800.62109375 405.610351562 800.62109375 c 0
 411.354492188 800.62109375 419.291015625 797.301757812 423.323242188 793.2109375 c 0
 526.60546875 688.50390625 630.2578125 612.83203125 790.8984375 558.28515625 c 0
 800.584960938 555.297851562 808.4453125 544.6484375 808.4453125 534.51171875 c 0
 808.4453125 520.78125 797.301757812 509.635742188 783.569335938 509.635742188 c 0
 781.1015625 509.635742188 777.22265625 510.333007812 774.908203125 511.192382812 c 0
 612.970703125 566.1796875 502.682617188 644.662109375 399.338867188 747.19140625 c 1
 324.916015625 721.29296875 263.076171875 690.840820312 207.868164062 655.006835938 c 1
 420.15625 62.0537109375 l 1
 518.86328125 156.766601562 625.950195312 229.932617188 779.344726562 282.018554688 c 0
 781.491210938 282.747070312 785.07421875 283.337890625 787.33984375 283.337890625 c 0
 801.080078125 283.337890625 812.229492188 272.186523438 812.229492188 258.448242188 c 0
 812.229492188 248.600585938 804.661132812 238.040039062 795.334960938 234.877929688 c 0
 634.69140625 180.331054688 531.04296875 104.70703125 427.759765625 0 c 0
 426.583984375 -1.1923828125 425.075195312 -2.3203125 423.387695312 -3.3212890625 c 0
 419.908203125 -5.62109375 415.81640625 -7.0703125 411.41015625 -7.3701171875 c 0
 410.9453125 -7.408203125 410.490234375 -7.4287109375 410.048828125 -7.4287109375 c 0
 410 -7.4287109375 409.951171875 -7.4267578125 409.900390625 -7.4267578125 c 0
 409.833984375 -7.4267578125 409.764648438 -7.4287109375 409.698242188 -7.4287109375 c 0
 407.881835938 -7.4287109375 406.0390625 -7.16796875 404.219726562 -6.6845703125 c 0
 403.482421875 -6.5185546875 402.794921875 -6.333984375 402.21484375 -6.142578125 c 0
 231.034179688 50.8583984375 118.401367188 132.86328125 11.9228515625 241.01953125 c 0
 7.8212890625 245.053710938 4.494140625 252.999023438 4.494140625 258.750976562 c 0
 4.494140625 272.483398438 15.6376953125 283.627929688 29.3701171875 283.627929688 c 0
 29.4248046875 283.627929688 29.5146484375 283.627929688 29.5703125 283.627929688 c 0
 35.3818359375 283.579101562 43.3525390625 280.127929688 47.36328125 275.924804688 c 0
 139.633789062 182.200195312 232.397460938 111.89453125 368.391601562 59.0224609375 c 1
 165.581054688 625.60546875 l 1
 122.342773438 593.491210938 82.58984375 557.526367188 42.9287109375 517.237304688 c 0
 38.8671875 512.953125 30.779296875 509.477539062 24.8759765625 509.477539062 c 0
 11.1435546875 509.477539062 0 520.62109375 0 534.353515625 c 0
 0 540.1328125 3.3544921875 548.102539062 7.4873046875 552.142578125 c 0
 52.02734375 597.383789062 97.6435546875 638.05859375 148.170898438 674.243164062 c 1
 112.688476562 773.370117188 l 2
 111.811523438 775.705078125 111.098632812 779.627929688 111.098632812 782.124023438 c 0
 111.098632812 795.080078125 121.594726562 806.206054688 134.528320312 806.958984375 c 0
 134.918945312 806.958984375 135.549804688 806.958984375 135.939453125 806.958984375 c 0
 145.770507812 806.958984375 156.3203125 799.4453125 159.48828125 790.139648438 c 2
 190.729492188 702.875976562 l 1
 250.518554688 740.583007812 317.750976562 772.706054688 397.778320312 799.353515625 c 0
 399.834960938 800.036132812 403.264648438 800.62109375 405.432617188 800.62109375 c 0
EndSplineSet
Validated: 1
EndChar

StartChar: R
Encoding: 82 82 22
Width: 851
VWidth: 0
Flags: W
VStem: 22.4814 47.915<-1.34485 15.6299> 293.941 47.7344<785.542 801.987> 530.893 47.6133<-0.431763 15.6299>
LayerCount: 2
Fore
SplineSet
444.444335938 795.873046875 m 0
 444.4921875 795.873046875 444.5703125 795.873046875 444.618164062 795.873046875 c 0
 450.28125 795.873046875 458.103515625 792.6015625 462.080078125 788.569335938 c 0
 563.819335938 685.42578125 665.920898438 610.864257812 824.090820312 557.104492188 c 0
 836.434570312 555.833007812 846.0703125 545.393554688 846.0703125 532.71484375 c 0
 846.0703125 522.723632812 838.322265625 512.225585938 828.774414062 509.282226562 c 0
 679.08203125 458.454101562 579.594726562 389.015625 483.15625 294.379882812 c 1
 577.072265625 32.16015625 l 2
 577.86328125 29.9462890625 578.505859375 26.2451171875 578.505859375 23.89453125 c 0
 578.505859375 10.357421875 567.51953125 -0.62890625 553.982421875 -0.62890625 c 0
 544.44921875 -0.62890625 534.104492188 6.654296875 530.892578125 15.6298828125 c 2
 438.961914062 272.4296875 l 1
 345.984375 303.611328125 270.5703125 342.338867188 203.9921875 388.788085938 c 1
 70.396484375 15.6298828125 l 2
 67.4169921875 6.1513671875 56.9365234375 -1.5419921875 47.001953125 -1.5419921875 c 0
 33.4658203125 -1.5419921875 22.4814453125 9.4443359375 22.4814453125 22.98046875 c 0
 22.4814453125 25.6083984375 23.2802734375 29.7216796875 24.265625 32.16015625 c 2
 162.845703125 419.303710938 l 1
 127.470703125 447.124023438 94.283203125 477.372070312 61.7587890625 510.080078125 c 0
 51.921875 513.270507812 44.8037109375 522.513671875 44.8037109375 533.41015625 c 0
 44.8037109375 539.107421875 48.1083984375 546.962890625 52.1826171875 550.9453125 c 0
 118.479492188 618.287109375 187.196289062 675.362304688 271.3515625 722.432617188 c 1
 293.94140625 785.541992188 l 2
 297.0703125 794.69921875 307.46484375 802.120117188 317.143554688 802.120117188 c 0
 317.342773438 802.120117188 317.668945312 802.120117188 317.870117188 802.120117188 c 0
 331.01171875 801.737304688 341.67578125 790.755859375 341.67578125 777.610351562 c 0
 341.67578125 775.157226562 340.979492188 771.305664062 340.119140625 769.01171875 c 2
 334.9921875 754.69140625 l 1
 366.609375 769.1640625 400.405273438 782.47265625 436.8984375 794.624023438 c 0
 438.92578125 795.296875 442.305664062 795.873046875 444.444335938 795.873046875 c 0
750.458984375 532.244140625 m 1
 621.639648438 584.717773438 527.427734375 654.91796875 438.436523438 743.20703125 c 1
 391.482421875 726.8671875 349.609375 708.6875 311.279296875 688.45703125 c 1
 221.090820312 436.544921875 l 1
 283.157226562 391.689453125 352.8203125 354.642578125 440.0703125 324.015625 c 0
 442.170898438 325.4375 444.501953125 326.541015625 446.997070312 327.260742188 c 0
 533.744140625 412.600585938 625.88671875 480.807617188 750.458984375 532.244140625 c 1
105.919921875 535.290039062 m 1
 130.244140625 511.2734375 154.76171875 488.877929688 180.272460938 467.991210938 c 1
 245.208984375 649.40234375 l 1
 194.825195312 616.2109375 149.978515625 578.392578125 105.919921875 535.290039062 c 1
EndSplineSet
Validated: 1
EndChar

StartChar: X
Encoding: 88 88 23
Width: 404
VWidth: 0
Flags: W
HStem: 1.81348 21G<371.702 383.337> 785.493 26.0107G<96.4502 109.217 283.234 295.442>
VStem: -8.78809 48.0283<-4.00229 12.2021> 79.583 48.1611<794.782 811.332> 264.718 48.1299<788.82 805.3> 353.222 48.0254<2.01232 18.2129>
LayerCount: 2
Fore
SplineSet
288.806640625 805.493164062 m 0
 302.078125 805.122070312 312.84765625 794.045898438 312.84765625 780.76953125 c 0
 312.84765625 778.313476562 312.15234375 774.44921875 311.295898438 772.146484375 c 2
 223.576171875 527.123046875 l 1
 399.798828125 34.8857421875 l 2
 400.598632812 32.6552734375 401.247070312 28.919921875 401.247070312 26.5498046875 c 0
 401.247070312 12.89453125 390.1640625 1.8134765625 376.509765625 1.8134765625 c 0
 366.89453125 1.8134765625 356.461914062 9.1591796875 353.221679688 18.212890625 c 2
 197.301757812 453.733398438 l 1
 74.041015625 109.431640625 l 1
 39.240234375 12.2021484375 l 2
 36 3.1474609375 25.5654296875 -4.201171875 15.94921875 -4.201171875 c 0
 2.294921875 -4.201171875 -8.7880859375 6.8818359375 -8.7880859375 20.5361328125 c 0
 -8.7880859375 22.90625 -8.138671875 26.6435546875 -7.33984375 28.8759765625 c 2
 27.4619140625 126.104492188 l 1
 171.028320312 527.123046875 l 1
 115.96484375 680.928710938 l 1
 81.166015625 778.108398438 l 2
 80.2919921875 780.431640625 79.5830078125 784.331054688 79.5830078125 786.811523438 c 0
 79.5830078125 799.694335938 90.0205078125 810.755859375 102.879882812 811.50390625 c 0
 103.279296875 811.50390625 103.9296875 811.50390625 104.329101562 811.50390625 c 0
 114.104492188 811.50390625 124.59375 804.03515625 127.744140625 794.782226562 c 2
 162.544921875 697.6015625 l 1
 197.303710938 600.513671875 l 1
 264.717773438 788.8203125 l 2
 267.887695312 798.029296875 278.364257812 805.493164062 288.103515625 805.493164062 c 0
 288.297851562 805.493164062 288.612304688 805.493164062 288.806640625 805.493164062 c 0
EndSplineSet
Validated: 1
EndChar

StartChar: B
Encoding: 66 66 24
Width: 795
VWidth: 0
Flags: W
HStem: 787.394 20G<406.624 412.347>
VStem: 108.421 48.7637<-10.3298 6.94434>
LayerCount: 2
Fore
SplineSet
388.120117188 528.872070312 m 0
 390.197265625 528.872070312 393.484375 528.255859375 395.456054688 527.600585938 c 0
 448.127929688 510.061523438 495.2734375 490.158203125 538.412109375 467.860351562 c 1
 587.540039062 605.044921875 l 1
 525.125976562 643.1015625 470.759765625 687.192382812 418.645507812 737.248046875 c 1
 326.265625 479.212890625 l 1
 340.883789062 492.732421875 355.340820312 506.799804688 369.780273438 521.438476562 c 0
 373.827148438 525.544921875 381.790039062 528.872070312 387.555664062 528.872070312 c 0
 387.711914062 528.872070312 387.963867188 528.872070312 388.120117188 528.872070312 c 0
620.033203125 644.780273438 m 0
 633.408203125 644.388671875 644.260742188 633.213867188 644.260742188 619.834960938 c 0
 644.260742188 617.338867188 643.55078125 613.418945312 642.676757812 611.083984375 c 2
 582.655273438 443.353515625 l 1
 659.899414062 397.590820312 724.506835938 343.076171875 786.999023438 279.596679688 c 0
 791.145507812 275.543945312 794.510742188 267.548828125 794.510742188 261.750976562 c 0
 794.510742188 260.02734375 794.334960938 258.342773438 794.001953125 256.716796875 c 0
 792.848632812 247.62890625 785.767578125 238.529296875 777.217773438 235.629882812 c 0
 616.05859375 180.909179688 512.079101562 105.04296875 408.46484375 0 c 0
 404.41796875 -4.109375 396.452148438 -7.4443359375 390.684570312 -7.4443359375 c 0
 388.448242188 -7.4443359375 384.91015625 -6.8701171875 382.7890625 -6.162109375 c 0
 306.875976562 19.1162109375 242.440429688 49.2958984375 184.942382812 84.4765625 c 1
 157.184570312 6.9443359375 l 2
 154.154296875 -2.7021484375 143.48828125 -10.53125 133.376953125 -10.53125 c 0
 119.600585938 -10.53125 108.420898438 0.6494140625 108.420898438 14.42578125 c 0
 108.420898438 17.1005859375 109.233398438 21.2861328125 110.234375 23.7685546875 c 2
 142.005859375 112.525390625 l 1
 87.4521484375 150.497070312 38.73828125 193.55078125 -8.75390625 241.79296875 c 0
 -12.8681640625 245.83984375 -16.2080078125 253.809570312 -16.2080078125 259.581054688 c 0
 -16.2080078125 273.356445312 -5.0283203125 284.536132812 8.748046875 284.536132812 c 0
 8.81640625 284.536132812 8.9296875 284.536132812 8.9990234375 284.536132812 c 0
 14.828125 284.487304688 22.8251953125 281.026367188 26.849609375 276.809570312 c 0
 69.5322265625 233.454101562 112.31640625 195.092773438 159.405273438 161.13671875 c 1
 366.77734375 740.46484375 l 1
 230.330078125 687.416015625 137.2734375 616.840820312 44.69921875 522.807617188 c 0
 40.623046875 518.499023438 32.5009765625 515.000976562 26.5703125 515.000976562 c 0
 12.7939453125 515.000976562 1.6142578125 526.182617188 1.6142578125 539.958984375 c 0
 1.6142578125 545.764648438 4.98828125 553.770507812 9.1455078125 557.82421875 c 0
 115.459960938 665.814453125 227.889648438 747.817382812 398.2578125 804.966796875 c 0
 401.475585938 806.506835938 404.936523438 807.393554688 408.310546875 807.393554688 c 0
 408.515625 807.393554688 408.846679688 807.393554688 409.051757812 807.393554688 c 0
 415.641601562 807.201171875 421.619140625 804.389648438 425.98828125 799.98828125 c 0
 426.100585938 799.881835938 426.208984375 799.774414062 426.315429688 799.666015625 c 0
 486.438476562 738.71484375 546.845703125 687.630859375 618.26953125 644.750976562 c 0
 618.626953125 644.770507812 618.985351562 644.780273438 619.340820312 644.780273438 c 0
 619.532226562 644.780273438 619.842773438 644.780273438 620.033203125 644.780273438 c 0
725.616210938 270.166015625 m 1
 633.40625 359.09375 536.790039062 425.517578125 394.038085938 475.221679688 c 1
 361.33203125 442.752929688 328.010742188 412.59765625 292.5078125 384.923828125 c 1
 202.086914062 132.365234375 l 1
 254.961914062 99.125 314.041015625 70.625 384.303710938 46.16796875 c 1
 480.23828125 141.34375 582.208984375 215.861328125 725.616210938 270.166015625 c 1
EndSplineSet
Validated: 1
EndChar

StartChar: P
Encoding: 80 80 25
Width: 859
VWidth: 0
Flags: W
HStem: 783.294 20G<444.479 448.945>
VStem: 63.8623 48.71<-19.5131 -3.08008> 341.266 48.8359<784.563 801.325>
LayerCount: 2
Fore
SplineSet
447.893554688 803.293945312 m 0
 449.997070312 803.293945312 453.323242188 802.678710938 455.317382812 802.015625 c 0
 627.939453125 744.53515625 741.51953125 661.83984375 848.893554688 552.7734375 c 0
 851.434570312 550.189453125 853.670898438 546.038085938 854.954101562 541.8984375 c 0
 856.116210938 539.008789062 856.755859375 535.854492188 856.755859375 532.549804688 c 0
 856.755859375 522.329101562 848.829101562 511.58984375 839.061523438 508.578125 c 0
 677.06640625 453.572265625 572.545898438 377.262695312 468.393554688 271.67578125 c 0
 464.325195312 267.544921875 456.318359375 264.192382812 450.520507812 264.192382812 c 0
 448.2734375 264.192382812 444.716796875 264.770507812 442.583984375 265.481445312 c 0
 365.424804688 291.174804688 300.059570312 321.916015625 241.774414062 357.799804688 c 1
 112.572265625 -3.080078125 l 2
 109.286132812 -12.2626953125 98.7041015625 -19.71484375 88.9521484375 -19.71484375 c 0
 75.103515625 -19.71484375 63.8623046875 -8.474609375 63.8623046875 5.375 c 0
 63.8623046875 7.77734375 64.51953125 11.56640625 65.3310546875 13.830078125 c 2
 198.62890625 386.155273438 l 1
 144.569335938 424.005859375 96.189453125 466.84765625 49.0078125 514.772460938 c 0
 44.900390625 518.8359375 41.56640625 526.82421875 41.56640625 532.603515625 c 0
 41.56640625 546.450195312 52.8046875 557.689453125 66.65234375 557.689453125 c 0
 66.8046875 557.689453125 l 2
 72.6572265625 557.689453125 80.6953125 554.194335938 84.748046875 549.971679688 c 0
 127.086914062 506.96484375 169.526367188 468.83984375 216.127929688 435.036132812 c 1
 341.265625 784.563476562 l 2
 344.46875 793.931640625 355.102539062 801.5234375 365.00390625 801.5234375 c 0
 365.208007812 801.5234375 365.541015625 801.5234375 365.747070312 801.5234375 c 0
 379.190429688 801.130859375 390.1015625 789.897460938 390.1015625 776.447265625 c 0
 390.1015625 773.940429688 389.38671875 770 388.5078125 767.65234375 c 2
 382.231445312 750.119140625 l 1
 398.134765625 764.703125 413.83203125 779.926757812 429.509765625 795.821289062 c 0
 433.577148438 799.947265625 441.581054688 803.293945312 447.375976562 803.293945312 c 0
 447.518554688 803.293945312 447.750976562 803.293945312 447.893554688 803.293945312 c 0
787.192382812 543.244140625 m 1
 694.49609375 632.66015625 597.411132812 699.442382812 453.892578125 749.4140625 c 1
 420.005859375 715.774414062 385.475585938 684.565429688 348.553710938 656.05078125 c 1
 259.010742188 405.947265625 l 1
 312.657226562 372.009765625 372.626953125 342.9609375 444.108398438 318.083007812 c 1
 540.544921875 413.762695312 643.033203125 488.65625 787.192382812 543.244140625 c 1
EndSplineSet
Validated: 1
EndChar

StartChar: J
Encoding: 74 74 26
Width: 877
VWidth: 0
Flags: W
HStem: 228.827 48.9619<738.896 813.366>
VStem: 549.132 48.6152<-16.3983 0> 825.985 48.6719<786.129 802.806>
LayerCount: 2
Fore
SplineSet
25.1875 277.840820312 m 2
 31.029296875 277.840820312 39.05078125 274.354492188 43.095703125 270.137695312 c 0
 143.788085938 167.859375 245.046875 93.248046875 401.740234375 38.7099609375 c 1
 467.27734375 103.733398438 535.610351562 159.133789062 617.969726562 205.069335938 c 1
 825.985351562 786.12890625 l 2
 829.193359375 795.450195312 839.799804688 803.005859375 849.658203125 803.005859375 c 0
 849.854492188 803.005859375 850.171875 803.005859375 850.368164062 803.005859375 c 0
 863.776367188 802.60546875 874.657226562 791.39453125 874.657226562 777.982421875 c 0
 874.657226562 775.494140625 873.952148438 771.583007812 873.0859375 769.250976562 c 2
 682.90234375 237.913085938 l 1
 713.166015625 251.744140625 745.330078125 264.51171875 779.817382812 276.221679688 c 0
 782.145507812 277.086914062 786.049804688 277.7890625 788.534179688 277.7890625 c 0
 802.354492188 277.7890625 813.569335938 266.573242188 813.569335938 252.752929688 c 0
 813.569335938 242.55078125 805.658203125 231.833984375 795.91015625 228.827148438 c 0
 745.138671875 211.587890625 700.022460938 192.250976562 658.798828125 170.572265625 c 1
 597.747070312 0 l 2
 594.465820312 -9.162109375 583.905273438 -16.599609375 574.171875 -16.599609375 c 0
 560.350585938 -16.599609375 549.131835938 -5.3818359375 549.131835938 8.4384765625 c 0
 549.131835938 10.837890625 549.790039062 14.619140625 550.59765625 16.8779296875 c 2
 591.434570312 130.946289062 l 1
 531.265625 91.556640625 478.575195312 45.716796875 425.979492188 -7.6044921875 c 0
 421.921875 -11.7060546875 413.948242188 -15.0341796875 408.178710938 -15.0341796875 c 0
 405.922851562 -15.0341796875 402.358398438 -14.453125 400.219726562 -13.7373046875 c 0
 227.942382812 43.62890625 114.588867188 126.161132812 7.4267578125 235.009765625 c 0
 3.3271484375 239.06640625 0 247.0390625 0 252.806640625 c 0
 0 266.625976562 11.2158203125 277.840820312 25.0361328125 277.840820312 c 0
 25.1875 277.840820312 l 2
EndSplineSet
Validated: 1
EndChar

StartChar: Z
Encoding: 90 90 27
Width: 916
VWidth: 0
Flags: W
HStem: 233.42 48.3369<843.187 913.104> 751.799 48.1494<733.086 802.359>
LayerCount: 2
Fore
SplineSet
24.865234375 800.236328125 m 2
 30.6318359375 800.236328125 38.552734375 796.791992188 42.5458984375 792.630859375 c 0
 141.947265625 691.663085938 241.947265625 617.991210938 396.623046875 564.151367188 c 1
 499.311523438 666.034179688 608.966796875 743.998046875 769.883789062 798.637695312 c 0
 772.016601562 799.361328125 775.575195312 799.948242188 777.827148438 799.948242188 c 0
 791.477539062 799.948242188 802.557617188 788.868164062 802.557617188 775.217773438 c 0
 802.557617188 765.43359375 795.036132812 754.940429688 785.771484375 751.798828125 c 0
 693.936523438 720.6171875 620.850585938 682.502929688 555.791992188 635.940429688 c 0
 555.5625 634.952148438 555.296875 634.028320312 555.013671875 633.271484375 c 2
 366.737304688 107.333007812 l 1
 408.553710938 84.3662109375 454.520507812 63.943359375 506.721679688 45.7734375 c 1
 609.40625 147.646484375 719.07421875 225.575195312 879.982421875 280.2109375 c 0
 882.280273438 281.064453125 886.135742188 281.756835938 888.587890625 281.756835938 c 0
 902.23046875 281.756835938 913.3046875 270.68359375 913.3046875 257.040039062 c 0
 913.3046875 246.96875 905.494140625 236.38671875 895.870117188 233.419921875 c 0
 736.254882812 179.223632812 633.271484375 104.036132812 530.651367188 0 c 0
 526.645507812 -4.05078125 518.771484375 -7.3369140625 513.077148438 -7.3369140625 c 0
 510.850585938 -7.3369140625 507.331054688 -6.7626953125 505.221679688 -6.0546875 c 0
 335.135742188 50.5810546875 223.227539062 132.060546875 117.428710938 239.5234375 c 0
 113.3828125 243.52734375 110.098632812 251.399414062 110.098632812 257.092773438 c 0
 110.098632812 270.737304688 121.170898438 281.809570312 134.815429688 281.809570312 c 0
 134.870117188 281.809570312 134.958984375 281.809570312 135.013671875 281.809570312 c 0
 140.779296875 281.809570312 148.700195312 278.366210938 152.69140625 274.205078125 c 0
 206.55859375 219.490234375 260.584960938 172.806640625 323.39453125 132.94921875 c 1
 482.467773438 577.311523438 l 1
 461.516601562 558.791992188 441.026367188 539.18359375 420.55078125 518.426757812 c 0
 416.54296875 514.356445312 408.653320312 511.053710938 402.94140625 511.053710938 c 0
 400.7265625 511.053710938 397.22265625 511.623046875 395.12109375 512.323242188 c 0
 225.037109375 568.958984375 113.12890625 650.487304688 7.33203125 757.950195312 c 0
 3.28515625 761.954101562 0 769.825195312 0 775.51953125 c 0
 0 789.163085938 11.072265625 800.236328125 24.716796875 800.236328125 c 0
 24.865234375 800.236328125 l 2
EndSplineSet
Validated: 1
EndChar
